#!OML:ASF H:\Not Pregnant\Project 1\Capture day 1\Session 1\non-pregnant.ASF
:FULLY-SPECIFIED
:DEGREES
1730
root 2.15396 16.1024 24.9534 86.1413 -82.3375 -73.9243
lowerback -3.16452 2.37196 8.05211
upperback -8.92485 2.9765 0.112495
thorax -7.23416 0.791246 -4.43937
lowerneck 16.0387 -8.15159 -30.5288
upperneck -2.56634 -17.9208 39.3846
head 3.63368 -11.0574 19.6994
rclavicle 2.9122e-014 2.06736e-014
rhumerus -32.8869 7.30349 -96.2187
rradius 37.4142
rwrist 19.7194
rhand -12.3367 6.91199
rfingers 7.12502
rthumb 13.7325 -22.6149
lclavicle 2.9122e-014 2.06736e-014
lhumerus -48.0204 -5.97643 92.484
lradius 37.66
lwrist 33.8036
lhand -11.5925 -11.9917
lfingers 7.12502
lthumb 14.4497 17.4852
rfemur -22.6968 -5.27641 24.6979
rtibia 23.6678
rfoot -16.2559 11.896
rtoes -17.9617
lfemur -386.77 7.04382 -375.241
ltibia 31.8666
lfoot -17.2997 -0.270907
ltoes -22.5969
1731
root 2.16182 16.0982 24.9415 86.694 -82.4156 -74.6633
lowerback -3.10344 2.36081 8.074
upperback -8.88153 2.97088 0.168772
thorax -7.22472 0.791675 -4.39358
lowerneck 16.0107 -8.11574 -30.5486
upperneck -2.3501 -17.9152 39.3065
head 3.6837 -11.0454 19.665
rclavicle 2.23633e-014 -1.03368e-014
rhumerus -32.8066 7.23696 -96.1299
rradius 37.016
rwrist 19.9718
rhand -12.3696 6.91812
rfingers 7.12502
rthumb 13.7009 -22.6109
lclavicle 2.23633e-014 -1.03368e-014
lhumerus -47.9688 -6.65599 93.1913
lradius 37.7574
lwrist 33.5635
lhand -11.0656 -11.9719
lfingers 7.12502
lthumb 14.9573 17.468
rfemur -22.5909 -4.97566 24.6188
rtibia 23.8154
rfoot -16.2995 11.6697
rtoes -17.9417
lfemur -386.604 7.25704 -375.264
ltibia 31.9062
lfoot -17.3573 -0.39308
ltoes -22.542
1732
root 2.17002 16.0938 24.9294 87.2445 -82.4964 -75.4008
lowerback -3.02397 2.34952 8.08042
upperback -8.84141 2.96695 0.223816
thorax -7.22955 0.793266 -4.34138
lowerneck 15.9802 -8.08481 -30.5694
upperneck -2.13957 -17.9171 39.2372
head 3.73736 -11.038 19.6341
rclavicle -2.32578e-014 -2.94201e-014
rhumerus -32.7441 7.16064 -96.0243
rradius 36.5821
rwrist 20.2325
rhand -12.3741 6.87948
rfingers 7.12502
rthumb 13.6964 -22.6498
lclavicle -2.32578e-014 -2.94201e-014
lhumerus -47.9133 -7.32749 93.8794
lradius 37.8493
lwrist 33.3388
lhand -10.5806 -11.9476
lfingers 7.12502
lthumb 15.4244 17.4569
rfemur -22.4855 -4.64747 24.5331
rtibia 23.9684
rfoot -16.3463 11.4075
rtoes -17.9337
lfemur -386.444 7.49498 -375.292
ltibia 31.9511
lfoot -17.4238 -0.541977
ltoes -22.4531
1733
root 2.17841 16.0891 24.9171 87.7501 -82.5725 -76.0968
lowerback -2.92607 2.33845 8.08207
upperback -8.80252 2.9652 0.273615
thorax -7.24601 0.795623 -4.29293
lowerneck 15.9497 -8.06115 -30.5853
upperneck -1.93922 -17.9288 39.1802
head 3.79388 -11.037 19.6069
rclavicle -8.00108e-015 1.94809e-014
rhumerus -32.6992 7.07442 -95.9137
rradius 36.1203
rwrist 20.4856
rhand -12.3697 6.79073
rfingers 7.12502
rthumb 13.7007 -22.7383
lclavicle -8.00108e-015 1.94809e-014
lhumerus -47.8519 -7.99182 94.5364
lradius 37.9365
lwrist 33.1256
lhand -10.1338 -11.9193
lfingers 7.12502
lthumb 15.8548 17.4516
rfemur -22.3759 -4.27875 24.446
rtibia 24.1277
rfoot -16.3959 11.0919
rtoes -17.9387
lfemur -386.285 7.73649 -375.316
ltibia 32.0024
lfoot -17.4984 -0.690879
ltoes -22.3922
1734
root 2.18693 16.0835 24.9042 88.1425 -82.6553 -76.6911
lowerback -2.80133 2.32298 8.06121
upperback -8.7631 2.96008 0.315433
thorax -7.27812 0.797115 -4.24151
lowerneck 15.9197 -8.04575 -30.5881
upperneck -1.7502 -17.9502 39.1341
head 3.85154 -11.0421 19.581
rclavicle -3.27001e-014 -1.98785e-014
rhumerus -32.6617 6.93121 -95.7861
rradius 35.6126
rwrist 20.7724
rhand -12.3584 6.68762
rfingers 7.12502
rthumb 13.7117 -22.8406
lclavicle -3.27001e-014 -1.98785e-014
lhumerus -47.7825 -8.63529 95.1503
lradius 38.0104
lwrist 32.8999
lhand -9.71336 -11.8904
lfingers 7.12502
lthumb 16.2597 17.4478
rfemur -22.2524 -3.91225 24.3558
rtibia 24.2934
rfoot -16.4772 10.7288
rtoes -18.0913
lfemur -386.12 7.97163 -375.345
ltibia 32.0644
lfoot -17.5849 -0.835272
ltoes -22.3713
1735
root 2.19585 16.0773 24.891 88.4482 -82.7319 -77.2015
lowerback -2.65532 2.30439 8.03447
upperback -8.72538 2.95296 0.352819
thorax -7.32468 0.79728 -4.1924
lowerneck 15.8899 -8.03838 -30.5783
upperneck -1.57603 -17.979 39.0965
head 3.90824 -11.0519 19.555
rclavicle 1.98785e-016 -1.98785e-015
rhumerus -32.6334 6.71376 -95.6303
rradius 35.0648
rwrist 21.1274
rhand -12.3099 6.60056
rfingers 7.12502
rthumb 13.7584 -22.9245
lclavicle 1.98785e-016 -1.98785e-015
lhumerus -47.7045 -9.24554 95.7152
lradius 38.0719
lwrist 32.657
lhand -9.30936 -11.8648
lfingers 7.12502
lthumb 16.6486 17.4412
rfemur -22.124 -3.5063 24.2715
rtibia 24.4679
rfoot -16.5808 10.2747
rtoes -18.4213
lfemur -385.961 8.18723 -375.365
ltibia 32.1389
lfoot -17.6769 -0.963137
ltoes -22.3779
1736
root 2.20524 16.0703 24.8773 88.6534 -82.8073 -77.6186
lowerback -2.48435 2.27974 7.99035
upperback -8.68724 2.94017 0.388217
thorax -7.38644 0.795289 -4.13661
lowerneck 15.8604 -8.03754 -30.5545
upperneck -1.42001 -18.0114 39.0655
head 3.96097 -11.0641 19.5285
rclavicle 4.07509e-015 1.35174e-014
rhumerus -32.6038 6.38909 -95.4368
rradius 34.4665
rwrist 21.5704
rhand -12.2319 6.54517
rfingers 7.12502
rthumb 13.8335 -22.9748
lclavicle 4.07509e-015 1.35174e-014
lhumerus -47.6143 -9.80559 96.2257
lradius 38.1173
lwrist 32.3962
lhand -8.94057 -11.8478
lfingers 7.12502
lthumb 17.0036 17.4279
rfemur -21.9902 -3.07202 24.189
rtibia 24.6546
rfoot -16.6956 9.75062
rtoes -18.8844
lfemur -385.8 8.36715 -375.377
ltibia 32.2245
lfoot -17.7683 -1.05512
ltoes -22.4356
1737
root 2.21544 16.0627 24.8632 88.8403 -82.8828 -78.0233
lowerback -2.28708 2.25155 7.92713
upperback -8.64662 2.92522 0.425035
thorax -7.46166 0.793316 -4.06966
lowerneck 15.8262 -8.04427 -30.5209
upperneck -1.28479 -18.0466 39.039
head 4.00982 -11.0774 19.5003
rclavicle -3.62782e-015 2.74323e-014
rhumerus -32.5816 6.03751 -95.2188
rradius 33.8383
rwrist 22.0354
rhand -12.1204 6.51342
rfingers 7.12502
rthumb 13.9409 -22.9992
lclavicle -3.62782e-015 2.74323e-014
lhumerus -47.5022 -10.2896 96.6756
lradius 38.143
lwrist 32.1142
lhand -8.60029 -11.8418
lfingers 7.12502
lthumb 17.3312 17.4054
rfemur -21.8608 -2.63505 24.1123
rtibia 24.8546
rfoot -16.8121 9.2107
rtoes -19.4133
lfemur -385.636 8.49025 -375.378
ltibia 32.3183
lfoot -17.8488 -1.07955
ltoes -22.5477
1738
root 2.22648 16.0551 24.8489 89.0297 -82.952 -78.4284
lowerback -2.0743 2.22117 7.85554
upperback -8.60349 2.90876 0.463785
thorax -7.54374 0.79119 -3.9965
lowerneck 15.7873 -8.05728 -30.4818
upperneck -1.172 -18.0836 39.0207
head 4.05506 -11.0919 19.4738
rclavicle 1.60519e-014 1.47101e-014
rhumerus -32.56 5.62456 -94.9731
rradius 33.1789
rwrist 22.5549
rhand -11.9702 6.50109
rfingers 7.12502
rthumb 14.0857 -23.0015
lclavicle 1.60519e-014 1.47101e-014
lhumerus -47.3729 -10.7196 97.0753
lradius 38.1565
lwrist 31.8447
lhand -8.32458 -11.8533
lfingers 7.12502
lthumb 17.5965 17.3704
rfemur -21.7477 -2.1389 24.0355
rtibia 25.0738
rfoot -16.8953 8.63167
rtoes -19.8764
lfemur -385.472 8.53302 -375.362
ltibia 32.4124
lfoot -17.9073 -1.00661
ltoes -22.7304
1739
root 2.23824 16.0476 24.8346 89.1655 -83.0171 -78.7814
lowerback -1.84658 2.18774 7.77919
upperback -8.55465 2.88951 0.502241
thorax -7.62883 0.788283 -3.92136
lowerneck 15.745 -8.07699 -30.4344
upperneck -1.08696 -18.1215 39.012
head 4.09442 -11.107 19.4492
rclavicle -1.69464e-014 -1.17283e-014
rhumerus -32.5429 5.17437 -94.702
rradius 32.5003
rwrist 23.0959
rhand -11.7945 6.49419
rfingers 7.12502
rthumb 14.255 -22.9966
lclavicle -1.69464e-014 -1.17283e-014
lhumerus -47.2213 -11.0796 97.4165
lradius 38.154
lwrist 31.5816
lhand -8.09438 -11.8806
lfingers 7.12502
lthumb 17.818 17.3231
rfemur -21.6491 -1.58833 23.9512
rtibia 25.3144
rfoot -16.9355 8.03529
rtoes -20.1673
lfemur -385.299 8.4784 -375.331
ltibia 32.5005
lfoot -17.9395 -0.828945
ltoes -22.9702
1740
root 2.25054 16.0404 24.8203 89.2354 -83.0899 -79.071
lowerback -1.60674 2.14949 7.68475
upperback -8.49893 2.86433 0.539846
thorax -7.71468 0.784105 -3.83714
lowerneck 15.6983 -8.10104 -30.3896
upperneck -1.02802 -18.1599 39.0172
head 4.13032 -11.123 19.4315
rclavicle -7.65321e-015 -8.94531e-015
rhumerus -32.5247 4.65865 -94.392
rradius 31.7952
rwrist 23.6834
rhand -11.6134 6.4965
rfingers 7.12502
rthumb 14.4295 -22.9819
lclavicle -7.65321e-015 -8.94531e-015
lhumerus -47.0527 -11.3777 97.7091
lradius 38.1408
lwrist 31.3499
lhand -7.91818 -11.921
lfingers 7.12502
lthumb 17.9876 17.2672
rfemur -21.565 -0.983677 23.8453
rtibia 25.5765
rfoot -16.9301 7.43532
rtoes -20.2172
lfemur -385.114 8.31252 -375.297
ltibia 32.5797
lfoot -17.945 -0.547122
ltoes -23.2175
1741
root 2.26347 16.0339 24.806 89.3016 -83.1637 -79.3451
lowerback -1.36825 2.11095 7.58463
upperback -8.43921 2.83786 0.57429
thorax -7.7956 0.780004 -3.7528
lowerneck 15.6468 -8.12948 -30.3432
upperneck -0.997343 -18.1972 39.037
head 4.16125 -11.1391 19.4203
rclavicle -1.06598e-014 -3.37934e-015
rhumerus -32.5069 4.06494 -94.0433
rradius 31.075
rwrist 24.3322
rhand -11.414 6.49612
rfingers 7.12502
rthumb 14.6217 -22.9684
lclavicle -1.06598e-014 -3.37934e-015
lhumerus -46.8726 -11.6276 97.9548
lradius 38.127
lwrist 31.164
lhand -7.79583 -11.9666
lfingers 7.12502
lthumb 18.1053 17.2107
rfemur -21.5098 -0.305769 23.7234
rtibia 25.8583
rfoot -16.8783 6.82776
rtoes -19.9908
lfemur -384.933 8.03196 -375.254
ltibia 32.6506
lfoot -17.9225 -0.156324
ltoes -23.4654
1742
root 2.27714 16.0275 24.7915 89.3898 -83.2361 -79.6247
lowerback -1.13485 2.07608 7.48047
upperback -8.3775 2.81483 0.602456
thorax -7.87084 0.778016 -3.67263
lowerneck 15.5968 -8.16416 -30.2871
upperneck -1.00109 -18.2353 39.074
head 4.18456 -11.1572 19.4154
rclavicle 1.54307e-014 3.04141e-014
rhumerus -32.494 3.40378 -93.6612
rradius 30.346
rwrist 25.0112
rhand -11.2361 6.48686
rfingers 7.12502
rthumb 14.793 -22.9652
lclavicle 1.54307e-014 3.04141e-014
lhumerus -46.6837 -11.8402 98.1517
lradius 38.1137
lwrist 31.0213
lhand -7.72028 -12.0142
lfingers 7.12502
lthumb 18.178 17.1564
rfemur -21.4851 0.392347 23.6036
rtibia 26.1552
rfoot -16.8148 6.23
rtoes -19.6278
lfemur -384.765 7.65119 -375.203
ltibia 32.7165
lfoot -17.8774 0.326022
ltoes -23.7078
1743
root 2.29137 16.0213 24.7768 89.4897 -83.3067 -79.8934
lowerback -0.918118 2.04114 7.36508
upperback -8.31373 2.78917 0.632839
thorax -7.93484 0.776079 -3.58293
lowerneck 15.542 -8.20032 -30.2347
upperneck -1.03373 -18.2684 39.1252
head 4.20168 -11.1733 19.4188
rclavicle -2.96438e-014 -2.04748e-014
rhumerus -32.4888 2.68206 -93.2329
rradius 29.6169
rwrist 25.7483
rhand -11.0325 6.49401
rfingers 7.12502
rthumb 14.9891 -22.9435
lclavicle -2.96438e-014 -2.04748e-014
lhumerus -46.4886 -12.0036 98.3079
lradius 38.1076
lwrist 30.9297
lhand -7.68767 -12.0643
lfingers 7.12502
lthumb 18.2093 17.1034
rfemur -21.4917 1.08041 23.493
rtibia 26.4587
rfoot -16.7559 5.64189
rtoes -19.2472
lfemur -384.621 7.17255 -375.144
ltibia 32.7831
lfoot -17.8143 0.89007
ltoes -23.9217
